<?xml version="1.0" encoding="UTF-8"?>
<svg width="241px" height="43px" viewBox="0 0 241 43" version="1.1" xmlns="http://www.w3.org/2000/svg" xmlns:xlink="http://www.w3.org/1999/xlink">
    <!-- Generator: Sketch 48.2 (47327) - http://www.bohemiancoding.com/sketch -->
    <title>sap-concur-logo</title>
    <desc>Created with Sketch.</desc>
    <defs></defs>
    <g id="Hi-Fi" stroke="none" stroke-width="1" fill="none" fill-rule="evenodd">
        <g id="sap-concur-logo">
            <g id="logo/SAPConcur/white-gold">
                <g id="SAP_Concur_horz_R_neg_whtgld">
                    <path d="M0,28.06 L4,25.7 C5.16425014,28.198926 7.67317455,29.7948048 10.43,29.79 C12.85,29.79 14.6,28.88 14.6,27.04 C14.6,25.2 12.9,24.46 9.76,23.58 C5.5,22.38 1.04,21.29 1.04,16.28 C1.04,11.82 4.53,9.14 9.66,9.14 C13.4738441,8.97378447 17.0897606,10.8426424 19.16,14.05 L15.51,16.79 C14.2493466,14.7384 12.0371437,13.4629973 9.63,13.4 C7.4,13.4 6.17,14.4 6.17,15.79 C6.17,17.7 7.95,18.37 11.08,19.25 C15.28,20.38 19.74,21.71 19.74,26.65 C19.74,30.49 16.84,33.92 10.18,33.92 C5.01,33.93 1.79,31.48 0,28.06 Z M20.7,33.49 L29.17,9.49 L34.17,9.49 L42.64,33.49 L37.31,33.49 L35.53,28.16 L27.39,28.16 L25.54,33.49 L20.7,33.49 Z M28.7,24.35 L34.33,24.35 L31.58,16.21 L31.49,16.21 L28.7,24.35 Z M45.3,33.49 L45.3,9.58 L54,9.58 C59.1,9.58 63.75,10.94 63.75,17.24 C63.75,23.54 58.75,24.99 53.93,24.99 L50.52,24.99 L50.52,33.49 L45.3,33.49 Z M50.54,20.92 L54.12,20.92 C57.38,20.92 58.61,19.66 58.61,17.37 C58.61,15.08 57.42,13.88 54.12,13.88 L50.52,13.88 L50.54,20.92 Z M74.08,21.47 C74.08,13.17 78.89,9.1 84.93,9.1 C90.97,9.1 93.58,12.33 94.62,16.63 L89.62,18.08 C88.85,15.33 87.68,13.46 84.87,13.46 C81.25,13.46 79.31,16.53 79.31,21.46 C79.31,26.39 81.31,29.66 84.93,29.66 C87.74,29.66 89.13,27.88 89.93,24.66 L94.88,25.76 C93.72,30.57 90.88,33.93 84.88,33.93 C78.68,33.9 74.06,29.9 74.06,21.47 L74.08,21.47 Z M96.79,24.85 C96.79,18.1 101.41,15.85 105.61,15.85 C109.81,15.85 114.39,18.08 114.39,24.85 C114.39,31.62 109.79,33.79 105.58,33.79 C101.37,33.79 96.79,31.54 96.79,24.85 Z M109.19,24.85 C109.19,21.97 108.19,19.65 105.6,19.65 C103.01,19.65 101.98,21.75 101.98,24.85 C101.98,27.72 102.98,30.11 105.6,30.11 C108.03,30.15 109.17,28.02 109.17,24.89 L109.19,24.85 Z M116.93,33.41 L116.93,16.23 L122.13,16.23 L122.13,18.94 C123.505165,17.0256886 125.712999,15.8846026 128.07,15.87 C130.98,15.87 133.07,17.33 133.07,20.87 L133.07,33.45 L127.91,33.45 L127.91,22.53 C127.91,20.98 127.33,20.17 125.91,20.17 C124.493035,20.2625905 123.159035,20.8708945 122.16,21.88 L122.16,33.45 L116.93,33.41 Z M135.6,24.82 C135.6,17.94 140.48,15.82 144.29,15.82 C148.98,15.82 150.78,18.31 151.78,21.09 L147.39,22.59 C146.71,20.39 145.71,19.68 144.19,19.68 C142.09,19.68 140.77,21.46 140.77,24.88 C140.77,27.94 141.77,30.14 144.13,30.14 C145.52,30.14 146.78,29.4 147.52,27.07 L151.82,28.56 C150.687839,31.8513488 147.504977,33.9882376 144.03,33.79 C139.99,33.79 135.57,31.54 135.57,24.85 L135.6,24.82 Z M154.47,28.79 L154.47,16.23 L159.67,16.23 L159.67,27.23 C159.67,28.78 160.25,29.62 161.67,29.62 C163.086817,29.5142439 164.416491,28.8956254 165.41,27.88 L165.41,16.23 L170.61,16.23 L170.61,33.45 L165.41,33.45 L165.41,30.79 C164.012484,32.6691086 161.811797,33.7805668 159.47,33.79 C156.57,33.79 154.47,32.35 154.47,28.79 Z M174.37,33.44 L174.37,16.23 L179.57,16.23 L179.57,19.11 C180.769592,17.0511733 182.998153,15.8122318 185.38,15.88 L185.54,15.88 L185.48,20.5 C185.29,20.5 184.48,20.4 184.12,20.4 C182.311874,20.4367994 180.626419,21.3221266 179.57,22.79 L179.57,33.45 L174.37,33.44 Z" id="Shape" fill="#FFFFFF" fill-rule="nonzero"></path>
                    <path d="M218.09,28.18 C215.116995,28.1598357 212.526845,26.1485951 211.770887,23.273235 C211.01493,20.397875 212.280988,17.372803 214.859653,15.8930554 C217.438319,14.4133077 220.688899,14.8465402 222.79,16.95 L226.2,13.54 C222.938564,10.2720218 218.029127,9.291638 213.762695,11.0563483 C209.496263,12.8210585 206.713831,16.9830049 206.713831,21.6 C206.713831,26.2169951 209.496263,30.3789415 213.762695,32.1436517 C218.029127,33.908362 222.938564,32.9279782 226.2,29.66 L222.79,26.25 C221.55839,27.4861925 219.885003,28.180738 218.14,28.18" id="Shape" fill="#F0AB00" fill-rule="nonzero"></path>
                    <path d="M227.68,18.72 C226.515149,18.72 225.464996,19.4216895 225.019227,20.4978717 C224.573458,21.574054 224.819858,22.8127933 225.643532,23.6364675 C226.467207,24.4601418 227.705946,24.7065423 228.782128,24.2607731 C229.858311,23.8150038 230.56,22.7648513 230.56,21.6 C230.56,20.0094199 229.27058,18.72 227.68,18.72" id="Shape" fill="#F0AB00" fill-rule="nonzero"></path>
                    <path d="M197.59,43.06 L240.65,43.06 L240.65,0 L197.59,0 L197.59,43.06 Z M202.41,38.24 L202.41,4.79 L235.79,4.79 L235.79,38.24 L202.41,38.24 Z" id="Shape" fill="#F0AB00" fill-rule="nonzero"></path>
                </g>
            </g>
        </g>
    </g>
</svg>